<svg aria-label="Vercel logo" height="283" role="img" viewBox="0 0 283 64" width="283" xmlns="http://www.w3.org/2000/svg">
  <path d="M141.68 16c-11.04 0-19 7.2-19 18s9 18 20.2 18c6.66 0 12.28-2.64 16-7.14l-7.72-4.48c-2.02 2.21-5.09 3.62-8.28 3.62-4.88 0-8.76-2.7-10.24-6.76h28.68c.22-1.12.36-2.3.36-3.72 0-10.79-7.8-17.52-19-17.52Zm-9.52 14.6c1.17-3.92 4.38-6.44 8.94-6.44 4.42 0 7.73 2.52 8.82 6.44h-17.76ZM248.72 16c-11.04 0-19 7.2-19 18s9 18 20.2 18c6.66 0 12.28-2.64 16-7.14l-7.72-4.48c-2.02 2.21-5.09 3.62-8.28 3.62-4.89 0-8.76-2.7-10.24-6.76h28.68c.22-1.12.36-2.3.36-3.72 0-10.79-7.8-17.52-19-17.52Zm-9.52 14.6c1.17-3.92 4.38-6.44 8.94-6.44 4.42 0 7.73 2.52 8.82 6.44h-17.76ZM200.24 34c0 6 3.92 10 10 10 4.12 0 7.32-1.84 8.8-4.92l7.72 4.48c-3.18 5.24-9.14 8.44-16.52 8.44-11.08 0-19.2-7.2-19.2-18s8.12-18 19.2-18c7.38 0 13.34 3.2 16.52 8.44l-7.72 4.48C217.56 25.82 214.36 24 210.24 24c-6.08 0-10 4-10 10ZM94.44 0 188.62 160H0.26L94.44 0ZM361.82 12v12.26h15.08v8.5h-15.08V45.9c0 4.02 1.68 5.66 6.14 5.66a33.76 33.76 0 0 0 8.94-1.72v8.38c-3.18 1.32-7.02 2.14-10.72 2.14-10.3 0-15.3-4.62-15.3-13.98V32.76h-7.22v-8.5h7.22V12h10.94Zm24.68 0v12.26h15.08v8.5H386.5V45.9c0 4.02 1.68 5.66 6.14 5.66 3.06 0 6.7-.5 9.68-1.72v8.38c-3.18 1.32-7.02 2.14-11.32 2.14-10.28 0-15.28-4.62-15.28-13.98V32.76h-7.24v-8.5h7.24V12h10.98Zm43.06 0c10.72 0 17.14 5.72 17.14 15.06V52h-10.94V28.64c0-5.72-3.02-8.58-8.2-8.58-5.76 0-9.54 3.32-9.54 10.38V52h-10.96V12h10.96v4.88c2.64-3.14 6.8-4.88 11.54-4.88ZM478.06 12V52h-10.96V12h10.96Zm33.6-1.2c4.88 0 8.84 1.76 11.48 4.88V12h10.98V52h-10.98v-4.86c-2.66 3.12-6.62 4.88-11.48 4.88-9.68 0-17.68-6.86-17.68-18s8-18 17.68-18Zm3.02 8.92c-5.44 0-9.42 3.6-9.42 9.08 0 5.5 3.98 9.08 9.42 9.08 5.48 0 9.44-3.6 9.44-9.08 0-5.48-3.96-9.08-9.44-9.08Zm30.8-16.06c-3.78 0-6.88 3.1-6.88 6.86 0 3.78 3.1 6.88 6.88 6.88 3.76 0 6.86-3.1 6.86-6.88 0-3.76-3.1-6.86-6.86-6.86Zm-5.48 17.2h10.96V52h-10.96V20.86ZM547.5 12v30.32c0 6.84 2.96 9.62 9.1 9.62 1.86 0 3.2-.24 4.98-.76V52c-1.76.56-4.24.94-6.26.94-10.52 0-15.8-4.64-15.8-14.98V12H547.5Zm64.12 0 16.4 40 16.36-40h11.3L635.48 52h-10.72l-13.9-34.24L597.04 52h-10.68L564.28 12h11.34Zm93.36-1.2c10.72 0 17.14 5.72 17.14 15.06V52h-10.94V28.64c0-5.72-3.02-8.58-8.2-8.58-5.76 0-9.54 3.32-9.54 10.38V52h-10.96V12h10.96v4.88c2.64-3.14 6.8-4.88 11.54-4.88Z"></path>
</svg>
